<svg xmlns="http://www.w3.org/2000/svg" viewBox="0 0 1391 1024" width="24" height="24">
  <path fill="#4D6BFE" d="M1382.1,63.5c-14.7,-7.4 -21.1,6.7 -29.7,13.8 -2.9,2.3 -5.4,5.3 -7.9,8.1 -21.5,23.5 -46.7,38.9 -79.6,37.1 -48.1,-2.8 -89.1,12.7 -125.3,50.2 -7.7,-46.3 -33.3,-73.9 -72.3,-91.6 -20.4,-9.2 -41,-18.4 -55.3,-38.4 -10,-14.3 -12.7,-30.2 -17.7,-45.8 -3.2,-9.4 -6.3,-19.1 -17,-20.7 -11.6,-1.8 -16.1,8.1 -20.7,16.3 -18.1,33.8 -25.2,71.1 -24.5,108.9 1.6,84.9 36.7,152.6 106.5,200.7 7.9,5.5 10,11 7.5,19.1 -4.7,16.6 -10.4,32.7 -15.4,49.3 -3.2,10.6 -7.9,12.9 -19,8.3 -38.3,-16.3 -71.4,-40.5 -100.7,-69.7 -49.6,-49 -94.5,-103.1 -150.5,-145.5a661.8,661.8 0,0 0,-39.9 -27.9c-57.1,-56.6 7.5,-103.1 22.4,-108.7 15.6,-5.8 5.4,-25.6 -45.1,-25.3s-96.8,17.5 -155.7,40.5c-8.6,3.5 -17.7,6 -27,8.1 -53.5,-10.4 -109.1,-12.7 -167.1,-6 -109.3,12.4 -196.5,65.1 -260.7,155.2 -77.1,108.2 -95.2,231.1 -73,359.3 23.3,135.1 90.9,247 194.7,334.5 107.7,90.7 231.7,135.1 373.1,126.6 85.9,-5.1 181.6,-16.8 289.5,-110 27.2,13.8 55.8,19.3 103.2,23.5 36.5,3.5 71.6,-1.8 98.8,-7.6 42.6,-9.2 39.7,-49.5 24.3,-56.9 -124.9,-59.4 -97.5,-35.2 -122.4,-54.8 63.5,-76.7 159.1,-156.3 196.5,-414.4 3,-20.5 0.5,-33.4 0,-50 -0.2,-10.1 2,-14 13.4,-15.2 31.3,-3.7 61.7,-12.4 89.5,-28.1 80.9,-45.1 113.6,-119.2 121.3,-208.1 1.2,-13.6 -0.2,-27.6 -14.3,-34.8M676.9,863.2c-121,-97.1 -179.8,-129.1 -204,-127.8 -22.7,1.4 -18.6,27.9 -13.6,45.1 5.2,17 12,28.8 21.6,43.7 6.6,9.9 11.1,24.6 -6.6,35.7 -39,24.6 -106.8,-8.3 -109.9,-9.9 -78.9,-47.4 -144.9,-110 -191.4,-195.7 -44.9,-82.4 -70.9,-170.8 -75.2,-265.2 -1.2,-22.8 5.4,-30.8 27.6,-35a267.6,267.6 0,0 1,88.7 -2.3c123.6,18.4 228.8,74.8 316.9,164.1 50.3,50.9 88.4,111.6 127.6,171 41.7,63.1 86.6,123.2 143.7,172.4 20.2,17.3 36.3,30.4 51.7,40.1 -46.5,5.3 -124,6.4 -177,-36.4m58,-381c0,-10.1 7.9,-18.2 17.9,-18.2q3.4,0.1 6.1,1.2a18,18 0,0 1,11.6 17,18 18,0 0,1 -17.9,18.2 17.8,17.8 0,0 1,-17.7 -18.2m180.2,94.4c-11.5,4.8 -23.1,9 -34.2,9.4 -17.2,0.9 -36,-6.2 -46.2,-15 -15.9,-13.6 -27.2,-21.2 -32,-44.9 -2,-10.1 -0.9,-25.8 0.9,-34.8 4.1,-19.3 -0.5,-31.8 -13.8,-43 -10.9,-9.2 -24.7,-11.7 -39.9,-11.7 -5.7,0 -10.9,-2.5 -14.7,-4.6a15.1,15.1 0,0 1,-6.6 -21.2c1.6,-3.2 9.3,-11.1 11.1,-12.4 20.6,-12 44.4,-8.1 66.4,0.9 20.4,8.5 35.8,24.2 58,46.3 22.7,26.7 26.8,34.1 39.7,54.1 10.2,15.7 19.5,31.8 25.8,50.2 3.9,11.5 -1.1,20.9 -14.5,26.7"/>
</svg>
