<svg xmlns="http://www.w3.org/2000/svg" viewBox="0 0 1086 1024" width="24" height="24">
  <path fill="#000000" d="M410.7,652.9l343.9,-254.1c16.8,-12.4 41,-7.6 49,11.8 42.3,102 23.4,224.7 -60.7,308.9 -84.1,84.2 -201.1,102.7 -308.1,60.6l-116.8,54.1c167.6,114.7 371.1,86.3 498.3,-41.1 100.9,-101 132.1,-238.7 102.9,-362.8l0.2,0.3c-42.4,-182.4 10.4,-255.3 118.5,-404.4 2.5,-3.5 5.1,-7.1 7.7,-10.7l-142.3,142.4v-0.4L410.7,653M339.8,714.7c-120.3,-115.1 -99.5,-293.1 3.1,-395.8 75.9,-76 200.3,-107 308.8,-61.4L768.3,203.6c-21,-15.2 -47.9,-31.6 -78.8,-43A386.8,386.8 0,0 0,269.2 245.2c-109.2,109.3 -143.5,277.4 -84.6,420.8 44.1,107.2 -28.1,183 -100.9,259.5 -25.8,27.1 -51.6,54.2 -72.5,83l328.4,-293.7"/>
</svg>
